<svg xmlns="http://www.w3.org/2000/svg" fill="none" stroke="currentColor" stroke-width="2" stroke-linecap="round" stroke-linejoin="round">
  <symbol id="home" viewBox="0 0 24 24"><path d="M3 11.5 12 4l9 7.5V21H3z"/><path d="M9 21v-6h6v6"/></symbol>
  <symbol id="reception" viewBox="0 0 24 24"><path d="M3 21V9l9-6 9 6v12"/><path d="M9 21v-7h6v7"/></symbol>
  <symbol id="reports" viewBox="0 0 24 24"><path d="M4 19V5h16v14z"/><path d="M8 15v-3m4 3V8m4 7v-5"/></symbol>
  <symbol id="history" viewBox="0 0 24 24"><path d="M3 12a9 9 0 1 0 3-6.7"/><path d="M3 4v5h5"/><path d="M12 7v5l3 2"/></symbol>
  <symbol id="audit" viewBox="0 0 24 24"><path d="M9 5h6"/><path d="M9 3h6v4H9z"/><path d="M6 5H5a2 2 0 0 0-2 2v12a2 2 0 0 0 2 2h14a2 2 0 0 0 2-2V7a2 2 0 0 0-2-2h-1"/><path d="m8 13 2 2 5-5"/></symbol>
  <symbol id="membership" viewBox="0 0 24 24"><path d="M4 5a2 2 0 0 1 2-2h12a2 2 0 0 1 2 2v14l-4-2-4 2-4-2-4 2z"/><path d="M8 8h8M8 12h5"/></symbol>
  <symbol id="calendar" viewBox="0 0 24 24"><rect x="3" y="4" width="18" height="17" rx="2"/><path d="M16 2v4M8 2v4M3 10h18"/></symbol>
  <symbol id="users" viewBox="0 0 24 24"><path d="M16 21v-2a4 4 0 0 0-4-4H6a4 4 0 0 0-4 4v2"/><circle cx="9" cy="7" r="4"/><path d="M22 21v-2a4 4 0 0 0-3-3.87M16 3.13a4 4 0 0 1 0 7.75"/></symbol>
  <symbol id="logout" viewBox="0 0 24 24"><path d="M10 17l5-5-5-5M15 12H3"/><path d="M21 19V5a2 2 0 0 0-2-2h-6"/></symbol>
  <symbol id="language" viewBox="0 0 24 24"><circle cx="12" cy="12" r="9"/><path d="M3 12h18M12 3a14 14 0 0 1 0 18M12 3a14 14 0 0 0 0 18"/></symbol>
  <symbol id="account" viewBox="0 0 24 24"><circle cx="12" cy="8" r="4"/><path d="M4 21a8 8 0 0 1 16 0"/></symbol>
  <symbol id="device" viewBox="0 0 24 24"><rect x="5" y="2" width="14" height="20" rx="2"/><path d="M10 18h4"/></symbol>
  <symbol id="search" viewBox="0 0 24 24"><circle cx="11" cy="11" r="7"/><path d="m20 20-4-4"/></symbol>
  <symbol id="plus" viewBox="0 0 24 24"><path d="M12 5v14M5 12h14"/></symbol>
  <symbol id="visit" viewBox="0 0 24 24"><path d="m5 12 4 4L19 6"/></symbol>
  <symbol id="payment" viewBox="0 0 24 24"><rect x="3" y="5" width="18" height="14" rx="2"/><path d="M3 10h18M7 15h3"/></symbol>
  <symbol id="freeze" viewBox="0 0 24 24"><path d="M12 2v20M4.9 4.9l14.2 14.2M2 12h20M4.9 19.1 19.1 4.9"/><circle cx="12" cy="12" r="9"/></symbol>
  <symbol id="cancel" viewBox="0 0 24 24"><circle cx="12" cy="12" r="9"/><path d="m9 9 6 6m0-6-6 6"/></symbol>
  <symbol id="check" viewBox="0 0 24 24"><path d="m5 12 4 4L19 6"/></symbol>
  <symbol id="warning" viewBox="0 0 24 24"><path d="M10.3 3.2 2.6 17a2 2 0 0 0 1.7 3h15.4a2 2 0 0 0 1.7-3L13.7 3.2a2 2 0 0 0-3.4 0Z"/><path d="M12 9v4m0 4h.01"/></symbol>
  <symbol id="danger" viewBox="0 0 24 24"><path d="M12 9v4m0 4h.01"/><path d="M10.3 3.2 2.6 17a2 2 0 0 0 1.7 3h15.4a2 2 0 0 0 1.7-3L13.7 3.2a2 2 0 0 0-3.4 0Z"/></symbol>
  <symbol id="restricted" viewBox="0 0 24 24"><rect x="5" y="10" width="14" height="11" rx="2"/><path d="M8 10V7a4 4 0 0 1 8 0v3"/></symbol>
  <symbol id="info" viewBox="0 0 24 24"><circle cx="12" cy="12" r="9"/><path d="M12 11v5m0-8h.01"/></symbol>
</svg>
